<svg width="20" height="20" fill="none" xmlns="http://www.w3.org/2000/svg"><g clip-path="url(#a)" fill-rule="evenodd" clip-rule="evenodd"><path d="M.835.833h18.33v17.83H.835V.833Z" fill="#1F0040"/><path d="M.002 0v19.496h19.996V0H.002Zm.833.833h18.33v17.83H.835V.833Z" fill="#D291FF"/><path d="m5.654 11.04-.66 2.488c-.014.068-.041.094-.124.094H3.647c-.083 0-.097-.027-.083-.123L5.93 5.223c.041-.151.069-.27.082-.683 0-.055.028-.082.069-.082h1.746c.055 0 .082.013.096.082l2.653 8.972c.014.07 0 .11-.068.11H9.132c-.069 0-.11-.026-.124-.08l-.687-2.502H5.654Zm2.338-1.353c-.234-.921-.799-2.941-1.005-3.917h-.013c-.18.976-.63 2.624-.974 3.916h1.992Zm4.466.853c.014 1.127.55 1.883 1.815 1.883.495 0 .919-.065 1.359-.258.055-.027.096-.014.096.055v1.045a.18.18 0 0 1-.082.165c-.44.22-.988.316-1.676.316-2.199 0-3.024-1.622-3.024-3.437 0-1.966 1.017-3.574 2.805-3.574 1.814 0 2.447 1.526 2.447 2.763 0 .399-.028.729-.07.88-.013.069-.04.093-.11.107-.164.027-.659.055-1.388.055h-2.172Zm1.691-1.146c.426 0 .578 0 .619-.014 0-.055.014-.102.014-.143 0-.454-.22-1.286-1.086-1.286-.798 0-1.141.7-1.224 1.443h1.677Z" fill="#D291FF"/></g><defs><clipPath id="a"><path fill="#fff" d="M0 0h20v19.496H0z"/></clipPath></defs></svg>