<svg width="20" height="20" viewBox="0 0 20 20" fill="none" xmlns="http://www.w3.org/2000/svg">
<g clip-path="url(#clip0_0:203)">
<path fill-rule="evenodd" clip-rule="evenodd" d="M0.835205 0.833191H19.1648V18.6629H0.835205V0.833191Z" fill="#1F0040"/>
<path fill-rule="evenodd" clip-rule="evenodd" d="M0.00201416 0V19.496H19.998V0H0.00201416ZM0.835176 0.833162H19.1648V18.6628H0.835176V0.833162Z" fill="#D291FF"/>
<path fill-rule="evenodd" clip-rule="evenodd" d="M5.65388 11.0395L4.99402 13.5278C4.98019 13.5964 4.95269 13.6223 4.87021 13.6223H3.64679C3.56431 13.6223 3.55048 13.5948 3.56431 13.4987L5.92874 5.22279C5.97007 5.07165 5.99756 4.95234 6.01122 4.54C6.01122 4.48501 6.03872 4.45752 6.08004 4.45752H7.82593C7.88076 4.45752 7.90825 4.47135 7.92208 4.54L10.5754 13.5124C10.589 13.5812 10.5754 13.6223 10.5066 13.6223H9.13183C9.06318 13.6223 9.02186 13.5964 9.00819 13.5416L8.32083 11.0395H5.65388ZM7.99207 9.68693C7.75837 8.76586 7.1934 6.74575 6.98719 5.76968H6.97353C6.79481 6.74575 6.34357 8.39385 5.99989 9.6861L7.99207 9.68693ZM12.4582 10.5396C12.4721 11.667 13.0083 12.423 14.2729 12.423C14.7678 12.423 15.1918 12.3576 15.6318 12.165C15.6867 12.1375 15.7281 12.1514 15.7281 12.22V13.2649C15.7281 13.3474 15.7006 13.3886 15.6456 13.4298C15.2058 13.6498 14.6579 13.746 13.9705 13.746C11.771 13.746 10.9461 12.1239 10.9461 10.3091C10.9461 8.34336 11.9633 6.735 13.7506 6.735C15.5652 6.735 16.1976 8.26087 16.1976 9.49813C16.1976 9.89681 16.1701 10.2268 16.1289 10.378C16.1151 10.4466 16.0876 10.4709 16.0189 10.4845C15.854 10.512 15.3591 10.5395 14.6304 10.5395H12.4582V10.5396ZM14.1491 9.39399C14.5753 9.39399 14.7267 9.39399 14.7678 9.38032C14.7678 9.32533 14.7817 9.27809 14.7817 9.23693C14.7817 8.78327 14.5616 7.9506 13.6956 7.9506C12.8983 7.9506 12.5546 8.65163 12.4721 9.39399H14.1491Z" fill="#D291FF"/>
</g>
<defs>
<clipPath id="clip0_0:203">
<rect width="20" height="19.496" fill="white"/>
</clipPath>
</defs>
</svg>
