<svg width="19" height="22" viewBox="0 0 19 22" fill="none" xmlns="http://www.w3.org/2000/svg">
<path d="M8 13V21H0C0 18.8783 0.842855 16.8434 2.34315 15.3431C3.84344 13.8429 5.87827 13 8 13ZM8 12C4.685 12 2 9.315 2 6C2 2.685 4.685 0 8 0C11.315 0 14 2.685 14 6C14 9.315 11.315 12 8 12ZM17.446 19.032L18.95 20.536L17.536 21.95L16.032 20.446C15.1933 20.9405 14.2031 21.1121 13.247 20.9288C12.2908 20.7454 11.4343 20.2196 10.8381 19.4499C10.2419 18.6802 9.94688 17.7195 10.0083 16.7479C10.0698 15.7762 10.4835 14.8604 11.1719 14.1719C11.8604 13.4835 12.7762 13.0698 13.7479 13.0083C14.7195 12.9469 15.6802 13.2419 16.4499 13.8381C17.2196 14.4343 17.7454 15.2908 17.9288 16.247C18.1121 17.2031 17.9405 18.1933 17.446 19.032ZM14 19C14.5304 19 15.0391 18.7893 15.4142 18.4142C15.7893 18.0391 16 17.5304 16 17C16 16.4696 15.7893 15.9609 15.4142 15.5858C15.0391 15.2107 14.5304 15 14 15C13.4696 15 12.9609 15.2107 12.5858 15.5858C12.2107 15.9609 12 16.4696 12 17C12 17.5304 12.2107 18.0391 12.5858 18.4142C12.9609 18.7893 13.4696 19 14 19Z" fill="white"/>
</svg>
